<?xml version="1.0" encoding="iso-8859-1"?>
<!-- Generator: Adobe Illustrator 18.0.0, SVG Export Plug-In . SVG Version: 6.00 Build 0)  -->
<!DOCTYPE svg PUBLIC "-//W3C//DTD SVG 1.1//EN" "http://www.w3.org/Graphics/SVG/1.1/DTD/svg11.dtd">
<svg version="1.1" id="Capa_1" xmlns="http://www.w3.org/2000/svg" xmlns:xlink="http://www.w3.org/1999/xlink" x="0px" y="0px"
	 viewBox="0 0 210 190" style="enable-background:new 0 0 210 190;" xml:space="preserve">
<g id="XMLID_1256_">
	<polygon id="XMLID_1257_" style="fill:#D82F23;" points="169.883,96.283 169.883,96.284 125.854,137.866 188.415,190 
		188.415,78.78 	"/>
	<polygon id="XMLID_1258_" style="fill:#EB4835;" points="21.585,78.78 21.585,190 84.146,137.866 	"/>
	<polygon id="XMLID_1259_" style="fill:#D82F23;" points="84.146,137.866 21.585,190 105,190 105,157.561 	"/>
	<polygon id="XMLID_1260_" style="fill:#C41A16;" points="105,157.561 105,190 188.415,190 125.854,137.866 	"/>
	<polygon id="XMLID_1261_" style="fill:#EB4835;" points="40.119,61.277 21.585,78.78 40.117,78.78 	"/>
	<polygon id="XMLID_1262_" style="fill:#EB4835;" points="188.415,78.78 169.88,61.276 169.882,78.78 	"/>
	<polygon id="XMLID_1263_" style="fill:#EB4835;" points="105,0 75.44,27.917 134.485,27.848 	"/>
	<polygon id="XMLID_1264_" style="fill:#BA1713;" points="169.883,96.283 188.415,78.78 169.882,78.78 	"/>
	<polygon id="XMLID_1265_" style="fill:#BA1713;" points="105,157.561 40.115,96.281 40.117,78.78 21.585,78.78 84.146,137.866 	"/>
	<path id="XMLID_1266_" style="fill:#05345E;" d="M40.115,96.281L105,157.561l20.854-19.695l44.029-41.582v0l-0.001-17.503
		l-0.001-17.505l-0.002-33.471l-35.393,0.043l-59.045,0.07L40.122,27.96l-0.003,33.317L40.117,78.78L40.115,96.281z M63.293,83.415
		h83.415v13.902H63.293V83.415z M63.293,69.512V55.61h83.415v13.902H63.293z"/>
	<rect id="XMLID_1270_" x="63.293" y="55.61" style="fill:#FFFFFF;" width="83.415" height="13.902"/>
	<rect id="XMLID_1271_" x="63.293" y="83.415" style="fill:#FFFFFF;" width="83.415" height="13.902"/>
</g>
</svg>
