<?xml version="1.0" encoding="iso-8859-1"?>
<!-- Generator: Adobe Illustrator 18.0.0, SVG Export Plug-In . SVG Version: 6.00 Build 0)  -->
<!DOCTYPE svg PUBLIC "-//W3C//DTD SVG 1.1//EN" "http://www.w3.org/Graphics/SVG/1.1/DTD/svg11.dtd">
<svg version="1.1" id="Capa_1" xmlns="http://www.w3.org/2000/svg" xmlns:xlink="http://www.w3.org/1999/xlink" x="0px" y="0px"
	 viewBox="169 359 76 76" style="enable-background:new 169 359 76 76;" xml:space="preserve">
<circle style="fill:#FFFFFF;" cx="202.215" cy="401.713" r="29.847"/>
<circle style="fill:#FDEE80;" cx="202.215" cy="401.713" r="17.347"/>
<path style="fill:#0E91CF;" d="M241.607,369.212l-6.526-0.222l-0.222-6.526c-0.026-0.766-0.668-1.367-1.434-1.341
	c-0.354,0.012-0.691,0.159-0.94,0.411l-11.983,11.927c-0.27,0.272-0.416,0.644-0.403,1.027v1.389
	c-14.247-9.814-33.753-6.221-43.567,8.026c-9.814,14.247-6.221,33.753,8.026,43.567c14.247,9.815,33.753,6.221,43.567-8.026
	c7.371-10.701,7.371-24.841,0-35.541h1.389l0,0c0.369,0.002,0.724-0.143,0.986-0.403l11.997-11.997
	c0.545-0.54,0.549-1.419,0.01-1.964c-0.249-0.252-0.586-0.399-0.94-0.411L241.607,369.212z M230.915,401.689
	c0.021,15.782-12.756,28.592-28.538,28.613s-28.592-12.756-28.613-28.538c-0.021-15.782,12.756-28.592,28.538-28.613
	c6.534-0.009,12.874,2.223,17.963,6.322l0.069,2.319l-5.554,5.554c-7.901-6.925-19.919-6.133-26.844,1.768
	c-6.925,7.901-6.133,19.919,1.768,26.844c7.901,6.925,19.919,6.133,26.844-1.768c6.222-7.099,6.297-17.686,0.176-24.872l5.554-5.554
	l2.291,0.083C228.653,388.899,230.891,395.193,230.915,401.689L230.915,401.689z M201.451,402.619c0.542,0.538,1.416,0.538,1.958,0
	l2.777-2.777c0.271,0.559,0.413,1.171,0.417,1.791c0,2.301-1.865,4.166-4.166,4.166c-2.301,0-4.166-1.865-4.166-4.166
	s1.865-4.166,4.166-4.166c0.621,0.004,1.233,0.146,1.791,0.417l-2.777,2.777C200.912,401.203,200.912,402.078,201.451,402.619z
	 M206.255,395.844c-3.197-2.116-7.505-1.24-9.621,1.958c-2.116,3.197-1.24,7.505,1.958,9.621c3.197,2.116,7.505,1.24,9.621-1.958
	c1.537-2.323,1.537-5.34,0-7.663l6.582-6.582c5.77,6.851,4.893,17.082-1.958,22.852c-6.851,5.77-17.082,4.893-22.852-1.958
	c-5.77-6.851-4.893-17.082,1.958-22.852c6.037-5.084,14.857-5.084,20.894,0L206.255,395.844z M229.054,381.125l-5.915-0.194
	l-0.194-5.915l9.303-9.303l0.153,4.624c0,0.767,0.622,1.389,1.389,1.389l4.624,0.153L229.054,381.125z"/>
</svg>
