<svg xmlns="http://www.w3.org/2000/svg" xmlns:xlink="http://www.w3.org/1999/xlink" preserveAspectRatio="xMidYMid" width="76" height="76" viewBox="0 0 76 76">
  <defs>
    <style>
      .cls-1 {
        fill: #0892d0;
      }

      .cls-1, .cls-2, .cls-3 {
        fill-rule: evenodd;
      }

      .cls-2 {
        fill: #fff;
      }

      .cls-3 {
        fill: #fde740;
      }
    </style>
  </defs>
  <g>
    <path d="M9.000,15.000 L67.000,15.000 C67.552,15.000 68.000,15.448 68.000,16.000 C68.000,16.552 67.552,17.000 67.000,17.000 L9.000,17.000 C8.448,17.000 8.000,16.552 8.000,16.000 C8.000,15.448 8.448,15.000 9.000,15.000 Z" class="cls-1"/>
    <path d="M31.000,9.000 C34.866,9.000 38.000,12.134 38.000,16.000 C38.000,19.866 34.866,23.000 31.000,23.000 C27.134,23.000 24.000,19.866 24.000,16.000 C24.000,12.134 27.134,9.000 31.000,9.000 Z" class="cls-1"/>
    <path d="M31.000,12.000 C33.209,12.000 35.000,13.791 35.000,16.000 C35.000,18.209 33.209,20.000 31.000,20.000 C28.791,20.000 27.000,18.209 27.000,16.000 C27.000,13.791 28.791,12.000 31.000,12.000 Z" class="cls-2"/>
  </g>
  <g>
    <path d="M9.000,30.000 L67.000,30.000 C67.552,30.000 68.000,30.448 68.000,31.000 C68.000,31.552 67.552,32.000 67.000,32.000 L9.000,32.000 C8.448,32.000 8.000,31.552 8.000,31.000 C8.000,30.448 8.448,30.000 9.000,30.000 Z" class="cls-1"/>
    <path d="M45.000,24.000 C48.866,24.000 52.000,27.134 52.000,31.000 C52.000,34.866 48.866,38.000 45.000,38.000 C41.134,38.000 38.000,34.866 38.000,31.000 C38.000,27.134 41.134,24.000 45.000,24.000 Z" class="cls-1"/>
    <path d="M45.000,27.000 C47.209,27.000 49.000,28.791 49.000,31.000 C49.000,33.209 47.209,35.000 45.000,35.000 C42.791,35.000 41.000,33.209 41.000,31.000 C41.000,28.791 42.791,27.000 45.000,27.000 Z" class="cls-3"/>
  </g>
  <g>
    <path d="M9.000,44.000 L67.000,44.000 C67.552,44.000 68.000,44.448 68.000,45.000 C68.000,45.552 67.552,46.000 67.000,46.000 L9.000,46.000 C8.448,46.000 8.000,45.552 8.000,45.000 C8.000,44.448 8.448,44.000 9.000,44.000 Z" class="cls-1"/>
    <path d="M31.000,38.000 C34.866,38.000 38.000,41.134 38.000,45.000 C38.000,48.866 34.866,52.000 31.000,52.000 C27.134,52.000 24.000,48.866 24.000,45.000 C24.000,41.134 27.134,38.000 31.000,38.000 Z" class="cls-1"/>
    <path d="M31.000,41.000 C33.209,41.000 35.000,42.791 35.000,45.000 C35.000,47.209 33.209,49.000 31.000,49.000 C28.791,49.000 27.000,47.209 27.000,45.000 C27.000,42.791 28.791,41.000 31.000,41.000 Z" class="cls-2"/>
  </g>
  <g>
    <path d="M9.000,59.000 L67.000,59.000 C67.552,59.000 68.000,59.448 68.000,60.000 C68.000,60.552 67.552,61.000 67.000,61.000 L9.000,61.000 C8.448,61.000 8.000,60.552 8.000,60.000 C8.000,59.448 8.448,59.000 9.000,59.000 Z" class="cls-1"/>
    <path d="M45.000,53.000 C48.866,53.000 52.000,56.134 52.000,60.000 C52.000,63.866 48.866,67.000 45.000,67.000 C41.134,67.000 38.000,63.866 38.000,60.000 C38.000,56.134 41.134,53.000 45.000,53.000 Z" class="cls-1"/>
    <path d="M45.000,56.000 C47.209,56.000 49.000,57.791 49.000,60.000 C49.000,62.209 47.209,64.000 45.000,64.000 C42.791,64.000 41.000,62.209 41.000,60.000 C41.000,57.791 42.791,56.000 45.000,56.000 Z" class="cls-2"/>
  </g>
</svg>
