<?xml version="1.0" encoding="iso-8859-1"?>
<!-- Generator: Adobe Illustrator 18.0.0, SVG Export Plug-In . SVG Version: 6.00 Build 0)  -->
<!DOCTYPE svg PUBLIC "-//W3C//DTD SVG 1.1//EN" "http://www.w3.org/Graphics/SVG/1.1/DTD/svg11.dtd">
<svg version="1.1" id="Layer_1" xmlns="http://www.w3.org/2000/svg" xmlns:xlink="http://www.w3.org/1999/xlink" x="0px" y="0px"
	 viewBox="0 0 76 76" style="enable-background:new 0 0 76 76;" xml:space="preserve">
<polygon style="fill:#FFFFFF;" points="11.229,13.239 10.779,38.809 13.744,50.128 21.821,64.054 35.754,72.767 38,73.396 
	48.062,67.916 58.932,55.967 64.143,43.318 64.771,29.376 65.131,15.598 64.682,12.486 63.693,11.947 55.339,11.139 47.433,8.534 
	38.449,3.053 30.993,6.647 21.29,10.959 10.779,12.217 "/>
<g>
	<defs>
		<rect id="SVGID_1_" x="9.701" y="1.448" width="56.597" height="73.105"/>
	</defs>
	<clipPath id="SVGID_2_">
		<use xlink:href="#SVGID_1_"  style="overflow:visible;"/>
	</clipPath>
	<path style="clip-path:url(#SVGID_2_);fill:#0E92CF;" d="M65.12,10.881c-9.006,0-17.616-2.8-24.899-8.097l-1.527-1.111
		c-0.413-0.301-0.972-0.301-1.386,0l-1.528,1.111c-7.282,5.297-15.892,8.097-24.898,8.097c-0.651,0-1.179,0.528-1.179,1.179v22.335
		c0,16.25,9.473,31.28,24.133,38.293l3.657,1.748c0.161,0.078,0.336,0.116,0.509,0.116c0.173,0,0.348-0.038,0.51-0.116l3.657-1.748
		c14.66-7.012,24.133-22.042,24.133-38.293V12.06C66.299,11.409,65.771,10.881,65.12,10.881L65.12,10.881z M63.94,34.395
		c0,15.349-8.946,29.543-22.793,36.165L38,72.067l-3.147-1.506C21.005,63.938,12.06,49.743,12.06,34.395V13.224
		c9.079-0.235,17.736-3.172,25.106-8.533L38,4.085l0.834,0.606c7.371,5.361,16.028,8.299,25.107,8.533V34.395z M63.94,34.395"/>
</g>
<rect x="26.142" y="39.617" style="fill:#FDEF80;" width="23.358" height="15.362"/>
<defs>
	<filter id="Adobe_OpacityMaskFilter" filterUnits="userSpaceOnUse" x="25.03" y="21.493" width="25.94" height="35.373">
		
			<feColorMatrix  type="matrix" values="-1 0 0 0 1  0 -1 0 0 1  0 0 -1 0 1  0 0 0 1 0" color-interpolation-filters="sRGB" result="source"/>
		<feFlood  style="flood-color:white;flood-opacity:1" result="back"/>
		<feBlend  in="source" in2="back" mode="normal"/>
	</filter>
</defs>
<mask maskUnits="userSpaceOnUse" x="25.03" y="21.493" width="25.94" height="35.373" id="SVGID_3_">
	<g style="filter:url(#Adobe_OpacityMaskFilter);">
	</g>
</mask>
<path style="mask:url(#SVGID_3_);fill:#0E92CF;" d="M27.388,32.105v5.896h-1.179c-0.651,0-1.179,0.528-1.179,1.179v16.508
	c0,0.652,0.529,1.179,1.179,1.179h23.582c0.651,0,1.179-0.527,1.179-1.179V39.18c0-0.651-0.528-1.179-1.179-1.179h-1.179v-5.896
	c0-5.851-4.761-10.612-10.612-10.612S27.388,26.254,27.388,32.105L27.388,32.105z M27.388,54.508v-5.896h4.716v-2.358h-4.716v-5.896
	h21.224v5.896h-4.716v2.358h4.716v5.896H27.388z M41.537,38.001h-7.075v-5.896c0-1.951,1.587-3.537,3.537-3.537
	c1.951,0,3.537,1.587,3.537,3.537V38.001z M46.254,32.105v5.896h-2.358v-5.896c0-3.251-2.644-5.896-5.896-5.896
	c-3.251,0-5.896,2.644-5.896,5.896v5.896h-2.358v-5.896c0-4.552,3.703-8.254,8.254-8.254C42.552,23.851,46.254,27.553,46.254,32.105
	L46.254,32.105z M46.254,32.105"/>
<path style="fill:#0E92CF;" d="M38,43.896c-1.95,0-3.537,1.587-3.537,3.537c0,1.95,1.587,3.537,3.537,3.537
	c1.951,0,3.537-1.587,3.537-3.537C41.537,45.483,39.951,43.896,38,43.896L38,43.896z M38,48.613c-0.649,0-1.179-0.529-1.179-1.179
	c0-0.651,0.53-1.179,1.179-1.179c0.65,0,1.179,0.528,1.179,1.179C39.179,48.084,38.65,48.613,38,48.613L38,48.613z M38,48.613"/>
<rect x="36.821" y="13.239" style="fill:#0E92CF;" width="2.358" height="2.358"/>
<rect x="41.537" y="13.239" style="fill:#0E92CF;" width="2.358" height="2.358"/>
<rect x="46.254" y="13.239" style="fill:#0E92CF;" width="2.358" height="2.358"/>
<rect x="32.104" y="13.239" style="fill:#0E92CF;" width="2.358" height="2.358"/>
<rect x="27.388" y="13.239" style="fill:#0E92CF;" width="2.358" height="2.358"/>
</svg>
