<svg xmlns="http://www.w3.org/2000/svg" xmlns:xlink="http://www.w3.org/1999/xlink" preserveAspectRatio="xMidYMid" width="76" height="76" viewBox="0 0 76 76">
  <defs>
    <style>
      .cls-1 {
        fill: #fff;
      }

      .cls-1, .cls-3 {
        fill-rule: evenodd;
      }

      .cls-2 {
        fill: #fddf01;
        opacity: 0.5;
      }

      .cls-3 {
        fill: #000;
        filter: url(#color-overlay-1);
      }
    </style>

    <filter id="color-overlay-1" filterUnits="userSpaceOnUse">
      <feFlood flood-color="#0892d0"/>
      <feComposite operator="in" in2="SourceGraphic"/>
      <feBlend in2="SourceGraphic" result="solidFill"/>
    </filter>
  </defs>
  <g>
    <path d="M72.797,24.700 C72.234,24.784 71.654,24.866 71.071,24.944 C70.777,25.922 70.384,26.870 69.900,27.770 C70.256,28.236 70.608,28.704 70.948,29.164 C71.703,30.185 71.594,31.633 70.695,32.532 L68.441,34.786 C67.542,35.685 66.093,35.794 65.073,35.039 C64.612,34.698 64.144,34.346 63.679,33.990 C62.778,34.475 61.831,34.868 60.853,35.161 C60.775,35.745 60.693,36.324 60.609,36.888 C60.421,38.144 59.320,39.091 58.048,39.091 L54.861,39.091 C53.589,39.091 52.488,38.144 52.300,36.888 C52.215,36.324 52.133,35.745 52.056,35.162 C51.078,34.868 50.130,34.475 49.230,33.990 C48.764,34.346 48.297,34.698 47.836,35.039 C46.815,35.794 45.367,35.685 44.468,34.786 L42.214,32.532 C41.314,31.633 41.205,30.185 41.960,29.164 C42.300,28.704 42.652,28.236 43.009,27.770 C42.525,26.869 42.132,25.922 41.838,24.944 C41.254,24.866 40.675,24.784 40.111,24.700 C38.855,24.512 37.909,23.411 37.909,22.139 L37.909,18.952 C37.909,17.679 38.856,16.578 40.111,16.390 C40.675,16.306 41.255,16.224 41.838,16.146 C42.132,15.168 42.525,14.221 43.009,13.321 C42.652,12.854 42.300,12.386 41.961,11.926 C41.205,10.905 41.315,9.457 42.214,8.558 L44.468,6.305 C45.367,5.405 46.815,5.296 47.836,6.051 C48.297,6.392 48.765,6.744 49.230,7.100 C50.130,6.615 51.078,6.223 52.056,5.928 C52.134,5.345 52.216,4.766 52.300,4.202 C52.488,2.947 53.589,2.000 54.861,2.000 L58.048,2.000 C59.320,2.000 60.421,2.947 60.609,4.202 C60.693,4.766 60.775,5.345 60.853,5.929 C61.831,6.223 62.779,6.615 63.679,7.100 C64.144,6.744 64.612,6.393 65.073,6.051 C66.094,5.296 67.542,5.405 68.441,6.305 L70.695,8.558 C71.594,9.458 71.704,10.905 70.949,11.926 C70.609,12.386 70.257,12.854 69.900,13.321 C70.384,14.221 70.777,15.169 71.071,16.146 C71.654,16.224 72.234,16.306 72.798,16.390 C74.053,16.578 75.000,17.679 75.000,18.952 L75.000,22.139 C75.000,23.411 74.053,24.512 72.797,24.700 ZM39.582,32.109 C39.366,32.974 39.137,33.859 38.900,34.741 C40.147,35.725 41.276,36.854 42.260,38.099 C43.141,37.862 44.026,37.633 44.891,37.418 C46.348,37.055 47.879,37.829 48.455,39.219 L50.133,43.270 C50.133,43.270 50.133,43.270 50.133,43.270 C50.708,44.660 50.172,46.291 48.886,47.063 C48.122,47.523 47.335,47.986 46.544,48.442 C46.729,50.017 46.729,51.614 46.544,53.192 C47.331,53.647 48.119,54.110 48.887,54.571 C50.172,55.344 50.708,56.975 50.133,58.364 L48.455,62.416 C47.879,63.806 46.347,64.580 44.891,64.217 C44.025,64.001 43.140,63.772 42.260,63.536 C41.275,64.782 40.146,65.911 38.901,66.895 C39.139,67.782 39.368,68.666 39.582,69.526 C39.945,70.982 39.171,72.514 37.782,73.090 L33.730,74.768 C32.340,75.343 30.710,74.808 29.937,73.522 C29.475,72.753 29.011,71.965 28.558,71.180 C26.982,71.364 25.386,71.363 23.808,71.179 C23.349,71.974 22.886,72.761 22.429,73.522 C21.865,74.459 20.845,74.998 19.795,74.998 C19.405,74.998 19.012,74.923 18.635,74.768 L14.583,73.089 C13.194,72.514 12.420,70.982 12.783,69.526 C12.998,68.661 13.227,67.776 13.464,66.894 C12.217,65.909 11.088,64.780 10.105,63.536 C9.223,63.773 8.338,64.002 7.474,64.217 C6.017,64.580 4.486,63.805 3.910,62.416 L2.232,58.364 C1.656,56.975 2.192,55.344 3.478,54.571 C4.244,54.112 5.031,53.648 5.821,53.193 C5.636,51.617 5.636,50.020 5.821,48.442 C5.032,47.987 4.245,47.523 3.478,47.063 C2.193,46.290 1.657,44.660 2.232,43.270 L3.910,39.219 C4.486,37.830 6.017,37.055 7.473,37.418 C8.337,37.633 9.222,37.862 10.106,38.099 C11.090,36.853 12.219,35.723 13.464,34.740 C13.228,33.861 12.999,32.976 12.783,32.109 C12.420,30.653 13.194,29.121 14.583,28.545 L18.635,26.867 C20.024,26.292 21.655,26.827 22.428,28.113 C22.887,28.876 23.350,29.664 23.807,30.455 C25.383,30.271 26.979,30.271 28.557,30.456 C29.012,29.667 29.476,28.879 29.936,28.113 C30.709,26.827 32.340,26.291 33.729,26.867 L37.781,28.545 C39.170,29.121 39.944,30.653 39.582,32.109 Z" class="cls-1"/>
    <circle cx="55.5" cy="20.5" r="4.5" class="cls-2"/>
    <path d="M72.797,24.700 C72.234,24.784 71.654,24.866 71.071,24.944 C70.777,25.922 70.384,26.870 69.900,27.770 C70.256,28.236 70.608,28.704 70.948,29.164 C71.703,30.185 71.594,31.633 70.695,32.532 L68.441,34.786 C67.542,35.685 66.093,35.794 65.073,35.039 C64.612,34.698 64.144,34.346 63.679,33.990 C62.778,34.475 61.831,34.868 60.853,35.161 C60.775,35.745 60.693,36.324 60.609,36.888 C60.421,38.144 59.320,39.091 58.048,39.091 L54.861,39.091 C53.589,39.091 52.488,38.144 52.300,36.888 C52.215,36.324 52.133,35.745 52.056,35.162 C51.078,34.868 50.130,34.475 49.230,33.990 C48.764,34.346 48.297,34.698 47.836,35.039 C46.815,35.794 45.367,35.685 44.468,34.786 L42.214,32.532 C41.314,31.633 41.205,30.185 41.960,29.164 C42.300,28.704 42.652,28.236 43.009,27.770 C42.525,26.869 42.132,25.922 41.838,24.944 C41.254,24.866 40.675,24.784 40.111,24.700 C38.855,24.512 37.909,23.411 37.909,22.139 L37.909,18.952 C37.909,17.679 38.856,16.578 40.111,16.390 C40.675,16.306 41.255,16.224 41.838,16.146 C42.132,15.168 42.525,14.221 43.009,13.321 C42.652,12.854 42.300,12.386 41.961,11.926 C41.205,10.905 41.315,9.457 42.214,8.558 L44.468,6.305 C45.367,5.405 46.815,5.296 47.836,6.051 C48.297,6.392 48.765,6.744 49.230,7.100 C50.130,6.615 51.078,6.223 52.056,5.928 C52.134,5.345 52.216,4.766 52.300,4.202 C52.488,2.947 53.589,2.000 54.861,2.000 L58.048,2.000 C59.320,2.000 60.421,2.947 60.609,4.202 C60.693,4.766 60.775,5.345 60.853,5.929 C61.831,6.223 62.779,6.615 63.679,7.100 C64.144,6.744 64.612,6.393 65.073,6.051 C66.094,5.296 67.542,5.405 68.441,6.305 L70.695,8.558 C71.594,9.458 71.704,10.905 70.949,11.926 C70.609,12.386 70.257,12.854 69.900,13.321 C70.384,14.221 70.777,15.169 71.071,16.146 C71.654,16.224 72.234,16.306 72.798,16.390 C74.053,16.578 75.000,17.679 75.000,18.952 L75.000,22.139 C75.000,23.411 74.053,24.512 72.797,24.700 ZM71.896,19.396 C71.384,19.321 70.861,19.249 70.337,19.181 C69.300,19.046 68.451,18.310 68.174,17.306 C67.910,16.346 67.526,15.418 67.033,14.550 C66.518,13.644 66.597,12.524 67.235,11.695 C67.557,11.276 67.876,10.855 68.186,10.440 L66.560,8.814 C66.143,9.125 65.722,9.444 65.305,9.764 C64.476,10.402 63.355,10.482 62.449,9.967 C61.581,9.474 60.654,9.090 59.693,8.825 C58.690,8.548 57.954,7.700 57.819,6.662 C57.750,6.139 57.678,5.616 57.604,5.104 L55.304,5.104 C55.230,5.616 55.158,6.139 55.090,6.663 C54.955,7.700 54.219,8.548 53.215,8.825 C52.254,9.090 51.327,9.474 50.459,9.967 C49.553,10.482 48.432,10.402 47.603,9.764 C47.186,9.444 46.765,9.125 46.348,8.814 L44.722,10.440 C45.033,10.855 45.351,11.276 45.673,11.694 C46.311,12.523 46.390,13.644 45.875,14.550 C45.382,15.418 44.998,16.345 44.734,17.306 C44.457,18.309 43.608,19.045 42.571,19.181 C42.047,19.249 41.525,19.321 41.013,19.395 L41.013,21.695 C41.525,21.769 42.047,21.841 42.572,21.910 C43.609,22.045 44.457,22.781 44.734,23.784 C44.998,24.745 45.383,25.672 45.876,26.540 C46.390,27.446 46.311,28.567 45.674,29.396 C45.352,29.814 45.033,30.235 44.722,30.651 L46.348,32.277 C46.766,31.966 47.186,31.647 47.603,31.326 C48.432,30.688 49.553,30.609 50.459,31.124 C51.328,31.617 52.254,32.001 53.215,32.266 C54.219,32.542 54.954,33.391 55.090,34.428 C55.158,34.952 55.230,35.475 55.304,35.987 L57.604,35.987 C57.679,35.475 57.751,34.952 57.819,34.428 C57.954,33.391 58.690,32.542 59.694,32.266 C60.654,32.001 61.581,31.617 62.449,31.123 C63.355,30.609 64.476,30.688 65.305,31.326 C65.722,31.647 66.143,31.966 66.560,32.277 L68.186,30.651 C67.876,30.235 67.557,29.814 67.235,29.396 C66.597,28.567 66.518,27.446 67.033,26.540 C67.526,25.672 67.910,24.745 68.175,23.785 C68.451,22.781 69.300,22.045 70.337,21.910 C70.861,21.841 71.384,21.769 71.896,21.695 L71.896,19.396 ZM56.454,27.161 C52.806,27.161 49.839,24.193 49.839,20.545 C49.839,16.897 52.807,13.930 56.454,13.930 C60.102,13.930 63.070,16.897 63.070,20.545 C63.070,24.193 60.102,27.161 56.454,27.161 ZM56.454,16.870 C54.428,16.870 52.780,18.519 52.780,20.545 C52.780,22.571 54.428,24.220 56.454,24.220 C58.481,24.220 60.129,22.571 60.129,20.545 C60.129,18.519 58.481,16.870 56.454,16.870 ZM39.582,32.109 C39.366,32.974 39.137,33.859 38.900,34.741 C40.147,35.725 41.276,36.854 42.260,38.099 C43.141,37.862 44.026,37.633 44.891,37.418 C46.348,37.055 47.879,37.829 48.455,39.219 L50.133,43.270 C50.133,43.270 50.133,43.270 50.133,43.270 C50.708,44.660 50.172,46.291 48.886,47.063 C48.122,47.523 47.335,47.986 46.544,48.442 C46.729,50.017 46.729,51.614 46.544,53.192 C47.331,53.647 48.119,54.110 48.887,54.571 C50.172,55.344 50.708,56.975 50.133,58.364 L48.455,62.416 C47.879,63.806 46.347,64.580 44.891,64.217 C44.025,64.001 43.140,63.772 42.260,63.536 C41.275,64.782 40.146,65.911 38.901,66.895 C39.139,67.782 39.368,68.666 39.582,69.526 C39.945,70.982 39.171,72.514 37.782,73.090 L33.730,74.768 C32.340,75.343 30.710,74.808 29.937,73.522 C29.475,72.753 29.011,71.965 28.558,71.180 C26.982,71.364 25.386,71.363 23.808,71.179 C23.349,71.974 22.886,72.761 22.429,73.522 C21.865,74.459 20.845,74.998 19.795,74.998 C19.405,74.998 19.012,74.923 18.635,74.768 L14.583,73.089 C13.194,72.514 12.420,70.982 12.783,69.526 C12.998,68.661 13.227,67.776 13.464,66.894 C12.217,65.909 11.088,64.780 10.105,63.536 C9.223,63.773 8.338,64.002 7.474,64.217 C6.017,64.580 4.486,63.805 3.910,62.416 L2.232,58.364 C1.656,56.975 2.192,55.344 3.478,54.571 C4.244,54.112 5.031,53.648 5.821,53.193 C5.636,51.617 5.636,50.020 5.821,48.442 C5.032,47.987 4.245,47.523 3.478,47.063 C2.193,46.290 1.657,44.660 2.232,43.270 L3.910,39.219 C4.486,37.830 6.017,37.055 7.473,37.418 C8.337,37.633 9.222,37.862 10.106,38.099 C11.090,36.853 12.219,35.723 13.464,34.740 C13.228,33.861 12.999,32.976 12.783,32.109 C12.420,30.653 13.194,29.121 14.583,28.545 L18.635,26.867 C20.024,26.292 21.655,26.827 22.428,28.113 C22.887,28.876 23.350,29.664 23.807,30.455 C25.383,30.271 26.979,30.271 28.557,30.456 C29.012,29.667 29.476,28.879 29.936,28.113 C30.709,26.827 32.340,26.291 33.729,26.867 L37.781,28.545 C39.170,29.121 39.944,30.653 39.582,32.109 ZM36.781,37.230 C35.809,36.474 35.389,35.214 35.710,34.020 C35.938,33.176 36.158,32.327 36.367,31.496 L32.642,29.953 C32.201,30.690 31.757,31.446 31.322,32.202 C30.705,33.273 29.517,33.868 28.295,33.715 C26.890,33.540 25.468,33.540 24.067,33.715 C22.847,33.868 21.659,33.272 21.042,32.201 C20.605,31.442 20.161,30.687 19.722,29.953 L15.997,31.496 C16.206,32.329 16.427,33.177 16.653,34.018 C16.975,35.212 16.555,36.472 15.585,37.228 C14.471,38.096 13.465,39.102 12.596,40.218 C11.839,41.190 10.579,41.610 9.385,41.289 C8.539,41.061 7.691,40.841 6.861,40.632 L5.318,44.357 C6.055,44.799 6.811,45.242 7.567,45.677 C8.639,46.294 9.233,47.483 9.081,48.705 C8.906,50.108 8.906,51.531 9.080,52.933 C9.232,54.154 8.638,55.341 7.566,55.958 C6.810,56.393 6.054,56.837 5.319,57.278 L6.861,61.002 C7.692,60.794 8.540,60.573 9.384,60.346 C10.578,60.025 11.838,60.444 12.593,61.415 C13.461,62.529 14.467,63.535 15.584,64.404 C16.555,65.160 16.976,66.420 16.654,67.614 C16.426,68.459 16.206,69.307 15.998,70.138 L19.722,71.681 C20.160,70.949 20.604,70.194 21.043,69.432 C21.660,68.360 22.846,67.767 24.070,67.919 C25.473,68.093 26.896,68.093 28.298,67.919 C29.518,67.768 30.706,68.362 31.323,69.433 C31.756,70.187 32.200,70.942 32.643,71.681 L36.367,70.139 C36.160,69.312 35.940,68.464 35.711,67.615 C35.390,66.422 35.809,65.162 36.779,64.406 C37.894,63.539 38.900,62.532 39.769,61.416 C40.525,60.444 41.785,60.024 42.979,60.346 C43.823,60.573 44.671,60.793 45.503,61.002 L47.046,57.277 C46.308,56.835 45.552,56.391 44.797,55.957 C43.725,55.340 43.131,54.151 43.283,52.930 C43.458,51.525 43.458,50.102 43.284,48.701 C43.132,47.480 43.727,46.293 44.798,45.676 C45.556,45.240 46.311,44.796 47.046,44.356 L45.503,40.632 C44.672,40.840 43.824,41.061 42.981,41.288 C41.786,41.609 40.527,41.190 39.771,40.219 C38.903,39.105 37.897,38.099 36.781,37.230 ZM30.444,61.106 C29.070,61.675 27.626,61.959 26.182,61.959 C24.739,61.959 23.295,61.675 21.921,61.106 C19.173,59.967 17.032,57.827 15.894,55.079 C13.544,49.406 16.248,42.879 21.921,40.529 C27.595,38.179 34.121,40.883 36.471,46.556 C36.471,46.556 36.471,46.556 36.471,46.556 C38.820,52.229 36.117,58.756 30.444,61.106 ZM33.452,47.806 C32.198,44.779 29.261,42.949 26.172,42.949 C25.171,42.949 24.153,43.141 23.171,43.548 C19.163,45.208 17.252,49.820 18.913,53.828 C19.717,55.770 21.230,57.283 23.171,58.087 C25.114,58.891 27.252,58.891 29.194,58.087 C33.202,56.426 35.112,51.815 33.452,47.806 Z" class="cls-3"/>
  </g>
</svg>
