<?xml version="1.0" encoding="iso-8859-1"?>
<!-- Generator: Adobe Illustrator 18.0.0, SVG Export Plug-In . SVG Version: 6.00 Build 0)  -->
<!DOCTYPE svg PUBLIC "-//W3C//DTD SVG 1.1//EN" "http://www.w3.org/Graphics/SVG/1.1/DTD/svg11.dtd">
<svg version="1.1" id="Capa_1" xmlns="http://www.w3.org/2000/svg" xmlns:xlink="http://www.w3.org/1999/xlink" x="0px" y="0px"
	 viewBox="169 359 76 76" style="enable-background:new 169 359 76 76;" xml:space="preserve">
<circle style="fill:#FDEE80;" cx="206.897" cy="367.373" r="6.342"/>
<rect x="197.818" y="377.773" style="fill:#FDEE80;" width="18.364" height="13.891"/>
<circle style="fill:#FFFFFF;" cx="233.266" cy="408.998" r="6.342"/>
<rect x="224.187" y="419.398" style="fill:#FFFFFF;" width="18.364" height="13.891"/>
<circle style="fill:#FFFFFF;" cx="180.641" cy="408.998" r="6.342"/>
<rect x="171.562" y="419.398" style="fill:#FFFFFF;" width="18.364" height="13.891"/>
<path style="fill:#0E91CF;" d="M214.534,366.864c0-4.161-3.373-7.534-7.534-7.534s-7.534,3.373-7.534,7.534s3.373,7.534,7.534,7.534
	C211.159,374.394,214.53,371.024,214.534,366.864z M201.977,366.864c0-2.774,2.249-5.023,5.023-5.023s5.023,2.249,5.023,5.023
	c0,2.774-2.249,5.023-5.023,5.023S201.977,369.638,201.977,366.864z"/>
<path style="fill:#0E91CF;" d="M195.699,381.932v7.534c0,2.08,1.687,3.767,3.767,3.767h15.068c2.08,0,3.767-1.687,3.767-3.767
	v-7.534c-0.004-3.466-2.813-6.274-6.278-6.278h-0.296l-0.265,0.132c-2.81,1.399-6.113,1.399-8.923,0l-0.265-0.132h-0.296
	C198.512,375.658,195.703,378.467,195.699,381.932z M198.21,381.932c0-1.976,1.528-3.617,3.499-3.757
	c3.355,1.557,7.225,1.557,10.58,0c1.971,0.14,3.499,1.78,3.499,3.757v7.534c0,0.693-0.562,1.256-1.256,1.256h-15.068
	c-0.693,0-1.256-0.562-1.256-1.256V381.932z"/>
<path style="fill:#0E91CF;" d="M233.369,400.767c-4.161,0-7.534,3.373-7.534,7.534s3.373,7.534,7.534,7.534s7.534-3.373,7.534-7.534
	C240.898,404.142,237.528,400.771,233.369,400.767z M233.369,413.323c-2.774,0-5.023-2.249-5.023-5.023
	c0-2.774,2.249-5.023,5.023-5.023s5.023,2.249,5.023,5.023C238.391,411.075,236.143,413.323,233.369,413.323z"/>
<path style="fill:#0E91CF;" d="M238.391,417.09h-0.296l-0.265,0.126c-2.81,1.399-6.113,1.399-8.923,0l-0.265-0.126h-0.296
	c-3.466,0.004-6.274,2.813-6.278,6.278v7.534c0,2.08,1.687,3.767,3.767,3.767h15.068c2.08,0,3.767-1.687,3.767-3.767v-7.534
	C244.665,419.903,241.857,417.095,238.391,417.09z M242.158,430.903c0,0.693-0.562,1.256-1.256,1.256h-15.068
	c-0.693,0-1.256-0.562-1.256-1.256v-7.534c0-1.976,1.528-3.617,3.499-3.757c3.355,1.557,7.225,1.557,10.58,0
	c1.971,0.14,3.499,1.78,3.499,3.757V430.903z"/>
<path style="fill:#0E91CF;" d="M180.631,400.767c-4.161,0-7.534,3.373-7.534,7.534s3.373,7.534,7.534,7.534s7.534-3.373,7.534-7.534
	C188.161,404.142,184.79,400.771,180.631,400.767z M180.631,413.323c-2.774,0-5.023-2.249-5.023-5.023
	c0-2.774,2.249-5.023,5.023-5.023s5.023,2.249,5.023,5.023C185.654,411.075,183.405,413.323,180.631,413.323z"/>
<path style="fill:#0E91CF;" d="M173.097,434.669h15.068c2.08,0,3.767-1.687,3.767-3.767v-7.534
	c-0.004-3.466-2.813-6.274-6.278-6.278h-0.296l-0.265,0.126c-2.81,1.399-6.113,1.399-8.923,0l-0.265-0.126h-0.296
	c-3.466,0.004-6.274,2.813-6.278,6.278v7.534C169.33,432.983,171.017,434.669,173.097,434.669z M171.842,423.369
	c0-1.976,1.528-3.617,3.499-3.757c3.355,1.557,7.225,1.557,10.58,0c1.971,0.14,3.499,1.78,3.499,3.757v7.534
	c0,0.693-0.562,1.256-1.256,1.256h-15.068c-0.693,0-1.256-0.562-1.256-1.256V423.369z"/>
<path style="fill:#0E91CF;" d="M219.456,423.094c-0.272-0.638-1.009-0.935-1.647-0.663l0,0c-5.67,2.376-11.967,2.81-17.909,1.233
	l1.175-0.345c0.666-0.195,1.047-0.893,0.853-1.558s-0.893-1.047-1.558-0.853l-5.023,1.473c-0.019,0-0.033,0.021-0.05,0.028
	c-0.116,0.043-0.226,0.104-0.324,0.18c-0.044,0.024-0.086,0.05-0.126,0.079c-0.132,0.118-0.237,0.264-0.308,0.427
	c-0.068,0.164-0.101,0.341-0.095,0.519c0.031,0.17,0.073,0.338,0.126,0.502c0.008,0.018,0,0.038,0.014,0.055l2.511,4.805
	c0.321,0.615,1.08,0.853,1.695,0.532c0.615-0.321,0.853-1.08,0.532-1.695l0,0l-1.022-1.954c6.751,2.03,14,1.635,20.491-1.115
	c0.639-0.27,0.937-1.007,0.667-1.646C219.457,423.097,219.457,423.095,219.456,423.094z"/>
<path style="fill:#0E91CF;" d="M240.535,392.345c-0.49-0.49-1.285-0.49-1.775,0l-1.777,1.777
	c-1.04-10.998-8.022-20.542-18.189-24.862c-0.638-0.272-1.376,0.025-1.647,0.663c-0.272,0.638,0.025,1.376,0.663,1.647
	c9.121,3.876,15.461,12.348,16.608,22.191l-1.416-1.416c-0.499-0.482-1.294-0.468-1.775,0.031c-0.47,0.487-0.47,1.258,0,1.745
	l3.767,3.767c0.49,0.491,1.285,0.492,1.776,0.002c0.001-0.001,0.001-0.001,0.002-0.002l3.767-3.767
	C241.027,393.63,241.026,392.835,240.535,392.345z"/>
<path style="fill:#0E91CF;" d="M192.644,376.784c0.169,0.083,0.355,0.126,0.544,0.126c0.482-0.001,0.921-0.277,1.13-0.712
	l2.511-5.24c0-0.013,0-0.026,0.01-0.039c0.033-0.086,0.055-0.175,0.068-0.266c0.021-0.068,0.037-0.137,0.048-0.207
	c-0.004-0.082-0.016-0.163-0.036-0.242c-0.004-0.073-0.015-0.146-0.033-0.217c0-0.011-0.014-0.019-0.019-0.031
	c-0.005-0.013,0-0.021,0-0.031c-0.034-0.061-0.074-0.119-0.118-0.173c-0.041-0.074-0.089-0.143-0.143-0.207
	c-0.074-0.066-0.157-0.122-0.245-0.167c-0.044-0.038-0.091-0.072-0.141-0.102l-5.023-2.294c-0.642-0.263-1.375,0.043-1.638,0.685
	c-0.249,0.607,0.011,1.303,0.596,1.598l2.6,1.189c-9.79,5.239-15.899,15.444-15.892,26.548c0,0.693,0.562,1.256,1.256,1.256
	c0.693,0,1.256-0.562,1.256-1.256c-0.006-9.777,5.164-18.827,13.59-23.787l-0.908,1.897
	C191.758,375.734,192.021,376.483,192.644,376.784z"/>
</svg>
