<svg xmlns="http://www.w3.org/2000/svg" xmlns:xlink="http://www.w3.org/1999/xlink" preserveAspectRatio="xMidYMid" width="76" height="76" viewBox="0 0 76 76">
  <defs>
    <style>
      .cls-1 {
        fill: #fff;
      }

      .cls-1, .cls-2, .cls-3 {
        fill-rule: evenodd;
      }

      .cls-2 {
        fill: #fddf01;
        opacity: 0.5;
      }

      .cls-3 {
        fill: #000;
        filter: url(#color-overlay-1);
      }
    </style>

    <filter id="color-overlay-1" filterUnits="userSpaceOnUse">
      <feFlood flood-color="#0892d0"/>
      <feComposite operator="in" in2="SourceGraphic"/>
      <feBlend in2="SourceGraphic" result="solidFill"/>
    </filter>
  </defs>
  <g>
    <path d="M19.974,72.109 L10.779,72.109 L10.779,59.072 C10.779,58.523 11.231,58.077 11.787,58.077 L18.966,58.077 C19.522,58.077 19.974,58.523 19.974,59.072 L19.974,72.109 L19.974,72.109 ZM43.184,72.109 L33.989,72.109 L33.989,46.935 C33.989,46.386 34.441,45.940 34.997,45.940 L42.176,45.940 C42.732,45.940 43.184,46.386 43.184,46.935 L43.184,72.109 ZM66.394,72.109 L57.199,72.109 L57.199,26.081 C57.199,25.532 57.651,25.086 58.207,25.086 L65.386,25.086 C65.942,25.086 66.394,25.532 66.394,26.081 L66.394,72.109 L66.394,72.109 Z" class="cls-1"/>
    <path d="M66.394,72.109 L57.199,72.109 L57.199,26.081 C57.199,25.532 57.651,25.086 58.207,25.086 L65.386,25.086 C65.942,25.086 66.394,25.532 66.394,26.081 L66.394,72.109 L66.394,72.109 Z" class="cls-2"/>
    <path d="M72.535,75.000 L4.465,75.000 C3.656,75.000 3.000,74.353 3.000,73.554 C3.000,72.756 3.656,72.109 4.465,72.109 L7.850,72.109 L7.850,59.072 C7.850,56.929 9.616,55.186 11.787,55.186 L18.967,55.186 C21.137,55.186 22.904,56.929 22.904,59.072 L22.904,72.109 L31.060,72.109 L31.060,46.935 C31.060,44.793 32.826,43.049 34.997,43.049 L42.177,43.049 C44.347,43.049 46.113,44.793 46.113,46.935 L46.113,72.109 L54.270,72.109 L54.270,26.081 C54.270,23.938 56.036,22.195 58.207,22.195 L65.386,22.195 C67.557,22.195 69.323,23.938 69.323,26.081 L69.323,72.109 L72.535,72.109 C73.344,72.109 74.000,72.756 74.000,73.554 C74.000,74.353 73.344,75.000 72.535,75.000 ZM19.974,59.072 C19.974,58.523 19.522,58.077 18.966,58.077 L11.787,58.077 C11.231,58.077 10.779,58.523 10.779,59.072 L10.779,72.109 L19.974,72.109 L19.974,59.072 ZM43.184,46.935 C43.184,46.386 42.732,45.940 42.176,45.940 L34.997,45.940 C34.441,45.940 33.989,46.386 33.989,46.935 L33.989,72.109 L43.184,72.109 L43.184,46.935 ZM66.394,26.081 C66.394,25.532 65.942,25.086 65.386,25.086 L58.207,25.086 C57.651,25.086 57.199,25.532 57.199,26.081 L57.199,72.109 L66.394,72.109 L66.394,26.081 ZM67.859,12.266 C67.050,12.266 66.394,11.618 66.394,10.820 L66.394,5.933 L50.881,21.243 C50.309,21.808 49.381,21.808 48.810,21.243 L43.350,15.855 L18.058,40.816 C17.772,41.098 17.397,41.240 17.022,41.240 C16.647,41.240 16.273,41.098 15.987,40.816 C15.415,40.252 15.415,39.336 15.987,38.772 L42.314,12.789 C42.589,12.518 42.961,12.366 43.350,12.366 C43.738,12.366 44.111,12.518 44.385,12.789 L49.845,18.177 L64.323,3.889 L58.852,3.889 C58.043,3.889 57.387,3.242 57.387,2.444 C57.387,1.645 58.043,0.999 58.852,0.999 L67.712,0.999 C67.736,0.999 67.760,1.001 67.783,1.002 C68.183,0.982 68.589,1.121 68.894,1.422 C69.200,1.723 69.340,2.124 69.320,2.518 C69.321,2.542 69.323,2.565 69.323,2.588 L69.323,10.820 C69.323,11.618 68.668,12.266 67.859,12.266 ZM12.086,46.283 C11.277,46.283 10.621,45.635 10.621,44.837 C10.621,44.039 11.277,43.392 12.086,43.392 C12.895,43.392 13.550,44.039 13.550,44.837 C13.550,45.635 12.895,46.283 12.086,46.283 Z" class="cls-3"/>
  </g>
</svg>
