<?xml version="1.0" encoding="iso-8859-1"?>
<!-- Generator: Adobe Illustrator 18.0.0, SVG Export Plug-In . SVG Version: 6.00 Build 0)  -->
<!DOCTYPE svg PUBLIC "-//W3C//DTD SVG 1.1//EN" "http://www.w3.org/Graphics/SVG/1.1/DTD/svg11.dtd">
<svg version="1.1" id="Capa_1" xmlns="http://www.w3.org/2000/svg" xmlns:xlink="http://www.w3.org/1999/xlink" x="0px" y="0px"
	 viewBox="0 0 35 34.999" style="enable-background:new 0 0 35 34.999;" xml:space="preserve">
<g>
	<path style="fill:#EB4835;" d="M27.666,2.364v30.271c0,1.301-1.062,2.364-2.364,2.364H9.697c-1.3,0.001-2.364-1.062-2.364-2.363
		V2.364C7.333,1.064,8.397,0,9.697,0h15.604C26.601,0,27.666,1.063,27.666,2.364z M14.717,1.99c0,0.158,0.128,0.286,0.286,0.286
		h4.992c0.158,0,0.286-0.128,0.286-0.286s-0.128-0.287-0.286-0.287h-4.992C14.846,1.704,14.717,1.832,14.717,1.99z M18.681,32.636
		c0-0.653-0.529-1.182-1.182-1.182s-1.182,0.528-1.182,1.182s0.529,1.183,1.182,1.183S18.681,33.289,18.681,32.636z M26.021,3.749
		H8.979v26.876h17.042V3.749z"/>
</g>
<g>
	<g>
		<g>
			<path style="fill:#05345E;" d="M18.97,17.279c-0.015,0.023-0.015,0.045-0.023,0.076c-0.008,0.098,0.068,0.189,0.167,0.197
				c0.098,0.008,0.189-0.068,0.197-0.167c0-0.023,0-0.045,0.008-0.083c0-0.038,0-0.061,0-0.083c0-0.22-0.038-0.432-0.106-0.636
				c-0.091-0.265-0.25-0.5-0.439-0.697c-0.235-0.235-0.523-0.401-0.848-0.492c-0.151-0.038-0.318-0.061-0.477-0.061
				c-0.053,0-0.106,0-0.167,0.008c-0.053,0.008-0.106,0.015-0.159,0.023c-0.098,0.015-0.167,0.114-0.144,0.204
				c0.015,0.098,0.114,0.167,0.204,0.144c0.045-0.008,0.083-0.015,0.129-0.015c0.008,0,0.015,0,0.023,0
				c0.038,0,0.076-0.008,0.114-0.008c0.417,0,0.803,0.167,1.075,0.447c0.273,0.273,0.439,0.644,0.447,1.06v0.015
				C18.97,17.241,18.97,17.264,18.97,17.279z"/>
			<path style="fill:#05345E;" d="M19.97,17.446c-0.008,0.098,0.068,0.189,0.167,0.197c0.098,0.008,0.189-0.068,0.197-0.167
				c0.008-0.083,0.008-0.167,0.008-0.25c0-0.167-0.015-0.326-0.038-0.485c-0.098-0.606-0.394-1.151-0.81-1.568
				c-0.477-0.477-1.113-0.788-1.817-0.841c-0.076-0.008-0.159-0.008-0.235-0.008c-0.083,0-0.167,0-0.25,0.008
				c-0.083,0.008-0.167,0.015-0.25,0.03c-0.098,0.015-0.167,0.114-0.144,0.204c0.015,0.098,0.114,0.167,0.204,0.144
				c0.053-0.008,0.098-0.015,0.151-0.023c0.023,0,0.045-0.008,0.068-0.008c0.076-0.008,0.151-0.008,0.22-0.008
				c0.257,0,0.5,0.038,0.735,0.106c0.409,0.121,0.772,0.341,1.068,0.636c0.242,0.242,0.439,0.538,0.568,0.856
				c0.114,0.288,0.182,0.606,0.182,0.939c0,0.023,0,0.053,0,0.076C19.977,17.348,19.97,17.393,19.97,17.446z"/>
			<path style="fill:#05345E;" d="M20.227,14.447c-0.719-0.719-1.704-1.159-2.794-1.159c-0.114,0-0.227,0.008-0.341,0.015
				c-0.114,0.008-0.227,0.023-0.341,0.045c-0.098,0.015-0.167,0.114-0.144,0.204c0.015,0.098,0.114,0.167,0.204,0.144
				c0.053-0.008,0.098-0.015,0.151-0.023c0.053-0.008,0.106-0.015,0.159-0.015c0.106-0.008,0.204-0.015,0.31-0.015
				c0.984,0,1.878,0.401,2.529,1.045c0.644,0.644,1.045,1.537,1.045,2.529c0,0.053,0,0.114,0,0.167c0,0.045-0.008,0.091-0.008,0.144
				c-0.008,0.098,0.068,0.189,0.167,0.197c0.098,0.008,0.189-0.068,0.197-0.167c0.008-0.114,0.015-0.227,0.015-0.333
				C21.378,16.143,20.939,15.159,20.227,14.447z"/>
			<path style="fill:#05345E;" d="M21.098,19.036l-1.34-0.719c-0.447-0.242-0.462-0.083-0.931,0.417
				c-0.114,0.121-0.326,0.439-0.576,0.379c-0.523-0.129-1.499-0.894-1.817-1.242c-0.151-0.167-0.803-0.962-0.81-1.219
				c-0.015-0.394,0.848-0.591,0.568-1.34l-0.598-1.34c-0.56-1.287-2.128,0.772-1.999,1.734c0.333,2.37,4.491,6.202,6.808,4.937
				C20.916,20.354,21.613,19.347,21.098,19.036z"/>
		</g>
	</g>
</g>
</svg>
