<?xml version="1.0" encoding="iso-8859-1"?>
<!-- Generator: Adobe Illustrator 18.0.0, SVG Export Plug-In . SVG Version: 6.00 Build 0)  -->
<!DOCTYPE svg PUBLIC "-//W3C//DTD SVG 1.1//EN" "http://www.w3.org/Graphics/SVG/1.1/DTD/svg11.dtd">
<svg version="1.1" id="Capa_1" xmlns="http://www.w3.org/2000/svg" xmlns:xlink="http://www.w3.org/1999/xlink" x="0px" y="0px"
	 viewBox="0 0 210 190" style="enable-background:new 0 0 210 190;" xml:space="preserve">
<polygon style="fill:#05345E;" points="167.241,130 139.606,130 71.553,130 42.759,130 10,190 200,190 "/>
<path style="fill:#EB4835;" d="M147.684,17.441L147.684,17.441c-23.252-23.252-60.954-23.252-84.209,0l0,0
	c-20.952,20.952-23.311,60.404-5.53,84.111l47.634,68.793l47.634-68.793C170.996,77.844,168.637,38.393,147.684,17.441z
	 M106.16,78.621c-10.856,0-19.655-8.799-19.655-19.655S95.303,39.31,106.16,39.31s19.655,8.799,19.655,19.655
	S117.013,78.621,106.16,78.621z"/>
<path style="fill:#D82F23;" d="M147.684,17.441L147.684,17.441C136.058,5.815,120.82,0.002,105.581,0.002
	c0,15.332-0.001,170.343-0.001,170.343l47.634-68.793C170.996,77.844,168.637,38.393,147.684,17.441z M105.581,78.621
	c0-11.204,0-21.454,0-39.292c10.856,0,20.234,8.78,20.234,19.636S116.433,78.621,105.581,78.621z"/>
</svg>
